<svg width="20" height="21" fill="none" xmlns="http://www.w3.org/2000/svg"><path d="M11.364.098a9.623 9.623 0 00-6.843 1.619c-2.02 1.39-3.493 3.5-4.147 5.94a10.986 10.986 0 00.588 7.341c1.034 2.292 2.822 4.114 5.035 5.13a8.543 8.543 0 01.163-2.408c.185-.881 1.296-5.736 1.296-5.736a4.096 4.096 0 01-.324-1.656c0-1.56.857-2.723 1.923-2.723a1.28 1.28 0 01.556.119c.176.08.332.2.46.35.127.15.222.328.278.52.056.193.072.395.047.595 0 .945-.577 2.375-.88 3.717a1.7 1.7 0 00-.01.751c.052.248.16.48.312.676.154.196.349.352.57.455.22.103.462.15.703.137 1.898 0 3.17-2.553 3.17-5.566 0-2.31-1.457-4.04-4.142-4.04a4.542 4.542 0 00-1.884.326c-.6.242-1.148.61-1.609 1.08a5.002 5.002 0 00-1.073 1.659 5.202 5.202 0 00-.364 1.968 3.211 3.211 0 00.648 2.069.505.505 0 01.174.262.528.528 0 01-.012.32 42.46 42.46 0 01-.208.822.382.382 0 01-.065.159.36.36 0 01-.126.11.34.34 0 01-.319-.002c-1.383-.582-2.035-2.18-2.035-4.007 0-2.989 2.383-6.567 7.152-6.567 3.796 0 6.32 2.916 6.32 6.034 0 4.104-2.177 7.19-5.394 7.19a2.748 2.748 0 01-1.386-.324 2.91 2.91 0 01-1.067-.984s-.578 2.432-.692 2.892a8.618 8.618 0 01-1.019 2.237 9.236 9.236 0 002.846.437 9.572 9.572 0 003.827-.797 9.967 9.967 0 003.245-2.277 10.537 10.537 0 002.165-3.409c.502-1.275.759-2.64.757-4.02-.001-2.536-.876-4.985-2.463-6.896C15.95 1.689 13.758.446 11.367.099l-.003-.001z" fill="#fff"/></svg>