<svg width="20" height="18" fill="none" xmlns="http://www.w3.org/2000/svg"><path d="M19.999 2.137a7.615 7.615 0 01-2.357.714c.858-.567 1.5-1.46 1.806-2.513a7.737 7.737 0 01-2.606 1.103C16.224.709 15.406.224 14.513.06a3.761 3.761 0 00-2.605.477c-.798.472-1.432 1.223-1.804 2.135a4.99 4.99 0 00-.254 2.91 10.782 10.782 0 01-4.685-1.378A11.96 11.96 0 011.392.837 4.904 4.904 0 00.837 3.12c0 1.575.724 2.966 1.825 3.78a3.793 3.793 0 01-1.858-.568v.057c0 1.049.328 2.065.928 2.877.6.812 1.435 1.369 2.363 1.577a3.744 3.744 0 01-1.854.078 4.56 4.56 0 001.46 2.258 3.85 3.85 0 002.373.897 7.967 7.967 0 01-2.868 1.61A7.471 7.471 0 010 15.958C1.876 17.293 4.06 18.002 6.29 18c7.547 0 11.675-6.922 11.675-12.924 0-.196-.005-.393-.013-.587A8.884 8.884 0 0020 2.138l-.001-.001z" fill="#fff"/></svg>