<svg width="66" height="66" fill="none" xmlns="http://www.w3.org/2000/svg"><path fill-rule="evenodd" clip-rule="evenodd" d="M10.126 10.12L33 .643l22.874 9.475L65.35 33l-9.477 22.88L33 65.357 10.126 55.88.65 33l9.477-22.88zM33 0l23.334 9.665L66 33l-9.666 23.334L33 66 9.665 56.334 0 33 9.665 9.665 33 0zm-4.433 26.417c-.619-.129-1.382-.193-2.29-.193-1.483 0-2.822.285-4.017.856-1.18.571-2.11 1.377-2.786 2.419-.677 1.027-1.016 2.212-1.016 3.553 0 1.385.332 2.612.994 3.682.662 1.07 1.584 1.905 2.765 2.505 1.195.585 2.549.877 4.06.877.85 0 1.599-.071 2.247-.214a9.692 9.692 0 002.117-.75.633.633 0 00.173-.149c.028-.043.05-.15.064-.321l.216-2.355c0-.042-.05-.064-.15-.064-.073 0-.109.014-.109.043-.389 1.17-.95 2.04-1.685 2.611-.734.571-1.692.857-2.872.857a5.68 5.68 0 01-3.09-.9c-.935-.599-1.684-1.412-2.246-2.44-.547-1.041-.82-2.183-.82-3.424 0-1.3.252-2.434.756-3.404.504-.985 1.216-1.74 2.138-2.269.922-.528 1.987-.792 3.197-.792 2.304 0 3.787 1.192 4.45 3.575.014.043.057.064.129.064.086-.014.13-.043.13-.086l-.26-2.547a2.893 2.893 0 00-.064-.32c-.015-.044-.072-.094-.173-.15a7.457 7.457 0 00-1.858-.664zm19.3 13.292c0-.085-.02-.128-.064-.128-.547 0-.95-.036-1.21-.107-.259-.071-.439-.207-.54-.407-.086-.214-.13-.535-.13-.963v-9.91c0-.429.044-.743.13-.942.101-.2.281-.336.54-.407.26-.086.663-.129 1.21-.129.043 0 .065-.043.065-.128 0-.086-.022-.129-.065-.129l-1.058.022c-.605.028-1.102.043-1.49.043-.433 0-.966-.015-1.6-.043l-1.014-.022c-.044 0-.065.043-.065.129 0 .085.021.128.065.128.561 0 .972.043 1.23.129.26.085.433.235.52.45.1.2.15.513.15.941v4.41h-8.294v-4.41c0-.428.043-.742.13-.942.1-.214.28-.364.54-.45.273-.085.684-.128 1.23-.128.03 0 .044-.043.044-.128 0-.086-.014-.129-.043-.129l-1.037.022c-.634.028-1.16.043-1.577.043-.36 0-.842-.015-1.447-.043l-1.102-.022c-.028 0-.043.043-.043.129 0 .085.015.128.043.128.548 0 .95.043 1.21.129.26.071.432.207.518.407.101.2.152.513.152.941v9.911c0 .428-.05.75-.152.963-.086.2-.266.336-.54.407-.259.071-.662.107-1.21.107-.028 0-.042.043-.042.128 0 .086.014.129.043.129.46 0 .82-.007 1.08-.022l1.49-.021 1.555.021c.26.015.612.022 1.059.022.029 0 .043-.043.043-.129 0-.085-.014-.128-.043-.128-.562 0-.972-.036-1.231-.107-.26-.071-.44-.207-.54-.407-.087-.214-.13-.535-.13-.963v-5.009h8.294v5.009c0 .428-.05.75-.15.963-.087.2-.26.336-.52.407-.258.071-.669.107-1.23.107-.044 0-.065.043-.065.128 0 .086.021.129.065.129.432 0 .77-.007 1.015-.022l1.598-.021 1.49.021c.26.015.613.022 1.059.022.043 0 .065-.043.065-.129z" fill="#A87B62"/></svg>