<svg width="20" height="21" fill="none" xmlns="http://www.w3.org/2000/svg"><path d="M10 0c2.717 0 3.056.01 4.122.063 1.065.053 1.79.228 2.428.488a4.87 4.87 0 011.772 1.21c.509.526.902 1.16 1.153 1.862.247.668.415 1.43.465 2.549.047 1.12.06 1.475.06 4.328s-.01 3.209-.06 4.328c-.05 1.118-.218 1.88-.465 2.55a5.16 5.16 0 01-1.153 1.86c-.5.534-1.105.947-1.772 1.21-.637.26-1.363.436-2.428.489-1.066.05-1.405.063-4.122.063-2.717 0-3.056-.01-4.122-.063-1.065-.053-1.79-.229-2.428-.488a4.873 4.873 0 01-1.772-1.21 5.182 5.182 0 01-1.153-1.861c-.248-.67-.415-1.432-.465-2.55C.013 13.708 0 13.353 0 10.5s.01-3.209.06-4.328c.05-1.12.217-1.88.465-2.55a5.156 5.156 0 011.153-1.86A4.88 4.88 0 013.45.552C4.088.29 4.812.114 5.878.062 6.944.013 7.283 0 10 0zm0 5.25a4.882 4.882 0 00-3.536 1.538A5.386 5.386 0 005 10.5c0 1.392.527 2.728 1.464 3.712A4.882 4.882 0 0010 15.75a4.882 4.882 0 003.536-1.538A5.386 5.386 0 0015 10.5a5.386 5.386 0 00-1.464-3.712A4.882 4.882 0 0010 5.25zm6.5-.263a1.35 1.35 0 00-.366-.928 1.22 1.22 0 00-.884-.384c-.332 0-.65.138-.884.384a1.35 1.35 0 00-.366.928c0 .349.132.682.366.929.235.246.553.384.884.384.332 0 .65-.138.884-.384a1.35 1.35 0 00.366-.929zM10 7.35a2.93 2.93 0 012.121.923c.563.59.879 1.392.879 2.227s-.316 1.637-.879 2.227A2.93 2.93 0 0110 13.65a2.93 2.93 0 01-2.121-.923A3.232 3.232 0 017 10.5c0-.835.316-1.637.879-2.227A2.93 2.93 0 0110 7.35z" fill="#fff"/></svg>