<svg width="15" height="13" fill="none" xmlns="http://www.w3.org/2000/svg"><path d="M15 1.543a5.875 5.875 0 01-1.768.516A3.263 3.263 0 0014.586.244a5.925 5.925 0 01-1.955.796 3.025 3.025 0 00-1.746-.996 2.913 2.913 0 00-1.954.344 3.206 3.206 0 00-1.353 1.543 3.48 3.48 0 00-.19 2.101 8.318 8.318 0 01-3.514-.995A8.868 8.868 0 011.044.604a3.44 3.44 0 00-.416 1.65c0 1.137.543 2.142 1.368 2.73a2.924 2.924 0 01-1.393-.41v.04c0 .758.246 1.492.696 2.079.45.586 1.076.988 1.773 1.139-.454.13-.93.15-1.391.056a3.287 3.287 0 001.094 1.631 2.958 2.958 0 001.78.648 6.03 6.03 0 01-2.15 1.162c-.782.233-1.6.3-2.405.196A8.318 8.318 0 004.717 13c5.661 0 8.757-4.999 8.757-9.334 0-.141-.004-.284-.01-.424A6.496 6.496 0 0015 1.544z" fill="#fff"/></svg>